<svg width="16" height="14" viewBox="0 0 16 14" fill="none" xmlns="http://www.w3.org/2000/svg">
<g opacity="0.5" clip-path="url(#clip0_2271_56554)">
<path d="M16 7.67311C15.9491 7.69268 15.953 7.74749 15.9295 7.78664C15.7925 8.04111 15.5146 8.1703 15.2327 8.10766C14.9743 8.05285 14.7746 7.81405 14.7551 7.54001C14.7512 7.48128 14.7512 7.42647 14.7512 7.36775C14.7512 5.77049 14.7512 4.16932 14.7512 2.57206C14.7512 1.92611 14.4027 1.46024 13.7999 1.2919C13.6667 1.25667 13.5336 1.25275 13.3966 1.25275C9.79887 1.25275 6.20113 1.25275 2.60338 1.25275C1.77343 1.25275 1.25275 1.78126 1.24884 2.6112C1.24884 5.26548 1.24884 7.92366 1.24884 10.5779C1.24884 11.2356 1.59726 11.7015 2.20798 11.8698C2.33325 11.9051 2.46636 11.909 2.59555 11.909C6.19721 11.909 9.80279 11.909 13.4045 11.909C14.1835 11.909 14.6924 11.4353 14.7472 10.668C14.7707 10.3274 14.9743 10.0886 15.2758 10.0455C15.6085 10.0024 15.8473 10.1551 15.9765 10.5035C15.9804 10.5114 15.9922 10.5153 16 10.5192C16 10.6875 16 10.852 16 11.0203C15.9217 11.1573 15.9217 11.3139 15.8708 11.4588C15.4989 12.5119 14.575 13.1617 13.4162 13.1617C9.8067 13.1656 6.19721 13.1617 2.59163 13.1617C2.3724 13.1617 2.15708 13.15 1.94177 13.0952C0.759481 12.7937 0 11.8268 0 10.6053C0 7.92366 0 5.24199 0 2.56031C0 2.37631 0.0117446 2.19623 0.0508931 2.01615C0.301444 0.814287 1.2919 0.00782756 2.56031 0.0039127C6.18938 -2.15077e-06 9.81845 -2.15077e-06 13.4475 0.0039127C14.5907 0.00782756 15.5028 0.661608 15.8669 1.70296C15.9217 1.85564 15.9569 2.01615 16 2.17274C16 4.00881 16 5.84096 16 7.67311Z" fill="white"/>
<path d="M6.36158 9.59532C6.07579 9.58749 5.74694 9.6149 5.42593 9.51311C4.81912 9.32128 4.36891 8.71448 4.37283 8.07636C4.37674 7.72793 4.61946 7.46564 4.95223 7.44215C5.29282 7.41866 5.57077 7.65355 5.61775 8.00589C5.64907 8.26427 5.73128 8.33865 5.98966 8.33865C6.26371 8.34257 6.54166 8.34257 6.8157 8.33865C7.19153 8.33082 7.3677 8.15074 7.3677 7.77883C7.3677 7.70053 7.37161 7.62223 7.36378 7.54394C7.34812 7.28947 7.16804 7.08981 6.91357 7.07024C6.67477 7.05066 6.43596 7.06241 6.19715 7.05066C5.31631 7.00369 4.63904 6.3499 4.53334 5.46123C4.42372 4.51383 5.01095 3.66431 5.95052 3.50771C6.51817 3.41376 7.1054 3.37461 7.63782 3.69171C8.11935 3.98141 8.37773 4.41205 8.3973 4.97187C8.41296 5.32812 8.14675 5.60217 7.79833 5.62174C7.4734 5.6374 7.19544 5.39076 7.15238 5.05017C7.12497 4.81528 7.03493 4.72524 6.80396 4.71741C6.61213 4.70958 6.41638 4.70958 6.22847 4.72524C5.9466 4.74873 5.77826 4.94838 5.77826 5.242C5.77826 5.54736 5.95443 5.77442 6.23239 5.79791C6.48685 5.81748 6.74132 5.80182 6.99578 5.8214C7.88446 5.88012 8.59305 6.62394 8.62045 7.51653C8.63219 7.93151 8.62045 8.33865 8.40122 8.71056C8.04497 9.30954 7.50863 9.58749 6.81961 9.59532C6.68259 9.59924 6.54557 9.59532 6.36158 9.59532Z" fill="white"/>
<path d="M13.8468 6.52602C13.8272 6.92142 13.8664 7.30508 13.8155 7.68874C13.6706 8.77707 12.6371 9.64225 11.541 9.59136C10.2686 9.53264 9.35256 8.5735 9.34473 7.29725C9.34082 6.78049 9.34082 6.26764 9.34473 5.75088C9.35256 4.59991 10.1238 3.69166 11.2591 3.49592C12.4492 3.29235 13.655 4.18102 13.8155 5.37897C13.8664 5.76654 13.8272 6.1502 13.8468 6.52602ZM10.5936 6.53777C10.5936 6.79615 10.5897 7.05844 10.5936 7.31683C10.6014 7.90014 11.0281 8.3386 11.5879 8.34252C12.1517 8.34643 12.5862 7.90406 12.5901 7.31291C12.5941 6.79223 12.5941 6.27156 12.5901 5.75088C12.5823 5.16757 12.1556 4.7291 11.5958 4.72519C11.032 4.72127 10.5975 5.16365 10.5936 5.7548C10.5897 6.01709 10.5936 6.27547 10.5936 6.53777Z" fill="white"/>
<path d="M2.31372 6.53394C2.31372 5.72748 2.31372 4.92102 2.31372 4.11456C2.31372 3.84052 2.44291 3.63694 2.69738 3.52341C2.92052 3.42163 3.20239 3.48035 3.37465 3.6526C3.49992 3.77396 3.56256 3.92664 3.56256 4.0989C3.56256 5.73139 3.56648 7.36389 3.56256 9.0003C3.56256 9.36046 3.28461 9.62276 2.9401 9.62276C2.59168 9.62276 2.32155 9.35655 2.31764 8.99638C2.30981 8.17818 2.31372 7.35606 2.31372 6.53394Z" fill="white"/>
</g>
<defs>
<clipPath id="clip0_2271_56554">
<rect width="16" height="13.1578" fill="white"/>
</clipPath>
</defs>
</svg>
