<svg width="16" height="14" viewBox="0 0 16 14" fill="none" xmlns="http://www.w3.org/2000/svg">
<g clip-path="url(#clip0_3115_71232)">
<path d="M16 7.67213C15.9491 7.69171 15.953 7.74652 15.9295 7.78566C15.7925 8.04013 15.5146 8.16932 15.2327 8.10668C14.9743 8.05188 14.7746 7.81307 14.7551 7.53903C14.7512 7.48031 14.7512 7.4255 14.7512 7.36678C14.7512 5.76952 14.7512 4.16834 14.7512 2.57108C14.7512 1.92513 14.4027 1.45926 13.7999 1.29092C13.6667 1.25569 13.5336 1.25177 13.3966 1.25177C9.79887 1.25177 6.20113 1.25177 2.60338 1.25177C1.77343 1.25177 1.25275 1.78028 1.24884 2.61023C1.24884 5.2645 1.24884 7.92268 1.24884 10.577C1.24884 11.2347 1.59726 11.7005 2.20798 11.8689C2.33325 11.9041 2.46636 11.908 2.59555 11.908C6.19721 11.908 9.80279 11.908 13.4045 11.908C14.1835 11.908 14.6924 11.4343 14.7472 10.667C14.7707 10.3264 14.9743 10.0876 15.2758 10.0445C15.6085 10.0015 15.8473 10.1542 15.9765 10.5026C15.9804 10.5104 15.9922 10.5143 16 10.5182C16 10.6866 16 10.851 16 11.0193C15.9217 11.1564 15.9217 11.3129 15.8708 11.4578C15.4989 12.5109 14.575 13.1608 13.4162 13.1608C9.8067 13.1647 6.19721 13.1608 2.59163 13.1608C2.3724 13.1608 2.15708 13.149 1.94177 13.0942C0.759481 12.7928 0 11.8258 0 10.6044C0 7.92268 0 5.24101 0 2.55934C0 2.37534 0.0117446 2.19525 0.0508931 2.01517C0.301444 0.813311 1.2919 0.00685099 2.56031 0.00293614C6.18938 -0.000978713 9.81845 -0.000978713 13.4475 0.00293614C14.5907 0.00685099 15.5028 0.660631 15.8669 1.70198C15.9217 1.85466 15.9569 2.01517 16 2.17176C16 4.00783 16 5.83998 16 7.67213Z" fill="white"/>
<path d="M6.36158 9.59618C6.07579 9.58835 5.74694 9.61575 5.42593 9.51397C4.81912 9.32214 4.36891 8.71533 4.37283 8.07721C4.37674 7.72879 4.61946 7.46649 4.95223 7.443C5.29282 7.41952 5.57077 7.65441 5.61775 8.00674C5.64907 8.26513 5.73128 8.33951 5.98966 8.33951C6.26371 8.34342 6.54166 8.34342 6.8157 8.33951C7.19153 8.33168 7.3677 8.15159 7.3677 7.77968C7.3677 7.70139 7.37161 7.62309 7.36378 7.54479C7.34812 7.29032 7.16804 7.09067 6.91357 7.07109C6.67477 7.05152 6.43596 7.06326 6.19715 7.05152C5.31631 7.00454 4.63904 6.35076 4.53334 5.46208C4.42372 4.51469 5.01095 3.66516 5.95052 3.50857C6.51817 3.41461 7.1054 3.37546 7.63782 3.69257C8.11935 3.98227 8.37773 4.4129 8.3973 4.97273C8.41296 5.32898 8.14675 5.60302 7.79833 5.62259C7.4734 5.63825 7.19544 5.39162 7.15238 5.05102C7.12497 4.81613 7.03493 4.72609 6.80396 4.71826C6.61213 4.71043 6.41638 4.71043 6.22847 4.72609C5.9466 4.74958 5.77826 4.94924 5.77826 5.24285C5.77826 5.54821 5.95443 5.77527 6.23239 5.79876C6.48685 5.81834 6.74132 5.80268 6.99578 5.82225C7.88446 5.88097 8.59305 6.6248 8.62045 7.51739C8.63219 7.93236 8.62045 8.33951 8.40122 8.71142C8.04497 9.31039 7.50863 9.58835 6.81961 9.59618C6.68259 9.60009 6.54557 9.59618 6.36158 9.59618Z" fill="white"/>
<path d="M13.8468 6.52798C13.8272 6.92338 13.8664 7.30703 13.8155 7.69069C13.6706 8.77902 12.6371 9.64421 11.541 9.59331C10.2686 9.53459 9.35256 8.57545 9.34473 7.2992C9.34082 6.78244 9.34082 6.2696 9.34473 5.75283C9.35256 4.60186 10.1238 3.69362 11.2591 3.49787C12.4492 3.2943 13.655 4.18297 13.8155 5.38092C13.8664 5.76849 13.8272 6.15215 13.8468 6.52798ZM10.5936 6.53972C10.5936 6.7981 10.5897 7.0604 10.5936 7.31878C10.6014 7.90209 11.0281 8.34056 11.5879 8.34447C12.1517 8.34839 12.5862 7.90601 12.5901 7.31486C12.5941 6.79419 12.5941 6.27351 12.5901 5.75283C12.5823 5.16952 12.1556 4.73106 11.5958 4.72714C11.032 4.72323 10.5975 5.16561 10.5936 5.75675C10.5897 6.01905 10.5936 6.27743 10.5936 6.53972Z" fill="white"/>
<path d="M2.31372 6.5332C2.31372 5.72674 2.31372 4.92028 2.31372 4.11382C2.31372 3.83978 2.44291 3.63621 2.69738 3.52268C2.92052 3.42089 3.20239 3.47962 3.37465 3.65187C3.49992 3.77323 3.56256 3.92591 3.56256 4.09816C3.56256 5.73066 3.56648 7.36315 3.56256 8.99956C3.56256 9.35973 3.28461 9.62203 2.9401 9.62203C2.59168 9.62203 2.32155 9.35582 2.31764 8.99565C2.30981 8.17744 2.31372 7.35532 2.31372 6.5332Z" fill="white"/>
</g>
<defs>
<clipPath id="clip0_3115_71232">
<rect width="16" height="13.1578" fill="white"/>
</clipPath>
</defs>
</svg>
