<svg width="80" height="28" viewBox="0 0 80 28" fill="none" xmlns="http://www.w3.org/2000/svg">
<path d="M35.9521 21.3622V19.2984H36.3383V21.3622H35.9521Z" fill="#2ED9C3"/>
<path d="M40.4309 19.2965H40.8212V21.3623H40.5786V21.3643L39.4907 19.9703V21.3623H39.1004V19.2985H39.4159L40.4309 20.5775V19.2965Z" fill="#2ED9C3"/>
<path d="M43.5429 21.3622V19.3025H45.0292V19.6777H43.9332V20.2406H44.9705V20.5997H43.9332V21.3642H43.5429V21.3622Z" fill="#2ED9C3"/>
<path d="M49.7588 20.3413C49.7527 20.8759 49.4251 21.4085 48.6992 21.4085C47.9733 21.4085 47.6356 20.888 47.6356 20.3433C47.6356 19.8006 47.9834 19.256 48.6992 19.256C49.411 19.258 49.7648 19.8027 49.7588 20.3413ZM48.0198 20.3514C48.0279 20.6903 48.2119 21.0514 48.6992 21.0514C49.1865 21.0514 49.3705 20.6863 49.3746 20.3473C49.3806 19.9983 49.1865 19.609 48.6992 19.609C48.2099 19.611 48.0097 20.0024 48.0198 20.3514Z" fill="#2ED9C3"/>
<path d="M54.2477 21.3623H53.7846L53.1821 20.6723H52.808V21.3623H52.4177V19.2965C52.7453 19.2965 53.0729 19.2985 53.4025 19.2985C53.8898 19.3005 54.1466 19.6253 54.1466 19.9824C54.1466 20.2648 54.0172 20.5513 53.6229 20.63L54.2497 21.334V21.3623H54.2477ZM52.806 19.6616V20.3213H53.4004C53.6492 20.3213 53.7563 20.1559 53.7563 19.9925C53.7563 19.827 53.6471 19.6616 53.4004 19.6616H52.806Z" fill="#2ED9C3"/>
<path d="M58.5749 19.8674L57.9016 20.7631H57.8247L57.1655 19.8653V21.3663H56.7773V19.3025H57.2262L57.8733 20.1901L58.5203 19.3025H58.9652V21.3663H58.5749V19.8674Z" fill="#2ED9C3"/>
<path d="M63.1649 20.9729H62.0831L61.9052 21.3622H61.4826L62.4107 19.2985H62.8374L63.7655 21.3622H63.3388L63.1649 20.9729ZM62.625 19.7322L62.2409 20.6118H63.0092L62.625 19.7322Z" fill="#2ED9C3"/>
<path d="M66.5034 19.6535H65.8483V19.3004C66.4448 19.3004 66.9503 19.3004 67.5508 19.3004V19.6535H66.8937V21.3622H66.5034V19.6535Z" fill="#2ED9C3"/>
<path d="M70.1552 21.3622V19.2984H70.5414V21.3622H70.1552Z" fill="#2ED9C3"/>
<path d="M75.0951 21.1018C74.8828 21.3116 74.6078 21.4085 74.3106 21.4085C73.5422 21.4085 73.2166 20.8799 73.2146 20.3433C73.2126 19.8047 73.5624 19.256 74.3106 19.256C74.5916 19.256 74.8565 19.3629 75.0709 19.5707L74.81 19.8208C74.6745 19.6877 74.4905 19.6251 74.3106 19.6251C73.8111 19.6251 73.5948 19.9963 73.5988 20.3413C73.6008 20.6842 73.799 21.0413 74.3106 21.0413C74.4905 21.0413 74.6948 20.9667 74.8302 20.8315L75.0951 21.1018Z" fill="#2ED9C3"/>
<path d="M78.9896 19.7967C78.9188 19.6777 78.7227 19.5668 78.4982 19.5668C78.2091 19.5668 78.0696 19.6878 78.0696 19.8411C78.0696 20.0207 78.2819 20.0711 78.5306 20.1014C78.9613 20.1558 79.3637 20.2668 79.3637 20.759C79.3637 21.219 78.9552 21.4167 78.4962 21.4167C78.0736 21.4167 77.748 21.2876 77.5944 20.9103L77.9199 20.7429C78.0109 20.9708 78.2515 21.0697 78.5023 21.0697C78.747 21.0697 78.9775 20.985 78.9775 20.761C78.9775 20.5674 78.7732 20.4867 78.4982 20.4564C78.0756 20.406 77.6874 20.295 77.6874 19.831C77.6874 19.4054 78.106 19.2339 78.4881 19.2299C78.8096 19.2299 79.1453 19.3227 79.301 19.6394L78.9896 19.7967Z" fill="#2ED9C3"/>
<path d="M53.1134 14.0857H50.4766V16.8212H48.7194V7.52322C50.1834 7.52322 51.6494 7.50909 53.1134 7.50909C57.6671 7.51111 57.6792 14.0857 53.1134 14.0857ZM50.4766 12.4779H53.1134C55.3639 12.4779 55.3498 9.1835 53.1134 9.1835H50.4766V12.4779Z" fill="white"/>
<path d="M77.6814 7.52524H79.6125V7.60391L76.458 12.1208L79.7055 16.7688V16.8212H77.736L75.352 13.3272L72.97 16.8212H70.9985V16.7688L74.2338 12.1208L71.0915 7.60391V7.52524H73.0226L75.352 10.9931L77.6814 7.52524Z" fill="white"/>
<path d="M62.1015 12.9964H67.1485V11.3623H60.3585C60.3585 13.1779 60.3585 15.0117 60.3585 16.8233H67.3346V15.0964H62.1015V12.9964Z" fill="white"/>
<path d="M60.3585 7.52524C60.3585 8.15465 60.3585 8.59444 60.3585 9.22587H67.3346V7.52524H60.3585Z" fill="white"/>
<path d="M41.2216 7.52524H39.3027L35.1231 16.8232H37.0259L40.2632 9.47602L43.4843 16.8232H45.4012L41.2216 7.52524Z" fill="white"/>
<g opacity="0.1">
<path opacity="0.1" d="M13.5781 15.625L4.03806 25.6129L13.6267 17.7493L23.1688 25.6129L13.5781 15.625Z" fill="#010101"/>
</g>
<path d="M14.4375 12.3932H12.7167L4.03806 25.613L13.5781 15.625L23.1688 25.613L14.4375 12.3932Z" fill="#2ED9C3"/>
<path d="M2.57406 17.4345C2.35567 16.5509 2.23839 15.6269 2.23839 14.6747C2.23839 10.2426 4.74574 6.38336 8.4178 4.43459L9.33379 2.39908C4.32516 4.24093 0.740051 9.04628 0.740051 14.6747C0.740051 16.3673 1.06762 17.9852 1.65807 19.472L2.57406 17.4345Z" fill="#2ED9C3"/>
<path d="M18.6575 4.12399C22.6733 5.9497 25.4739 9.9925 25.4739 14.6768C25.4739 15.8731 25.2878 17.027 24.9481 18.1144L25.8136 20.039C26.5557 18.4009 26.9722 16.5873 26.9722 14.6768C26.9722 8.8305 23.106 3.87384 17.7941 2.20145L18.6575 4.12399Z" fill="#2ED9C3"/>
<path d="M20.4248 24.225C18.5544 25.51 16.2917 26.2665 13.8551 26.2665C11.2406 26.2665 8.83031 25.3971 6.88711 23.9385L6.27039 25.3406C8.41377 26.8617 11.0303 27.7614 13.8572 27.7614C16.506 27.7614 18.973 26.9706 21.0375 25.617L20.4248 24.225Z" fill="#2ED9C3"/>
<path d="M16.1401 1.1666H11.0647L0 25.7784H5.03897L13.6044 6.33306L22.1314 25.7784H27.2068L16.1401 1.1666Z" fill="white"/>
</svg>
