<svg width="12" height="12" viewBox="0 0 12 12" fill="none" xmlns="http://www.w3.org/2000/svg">
<path d="M11.6263 1.95481C11.6964 2.0251 11.7357 2.1203 11.7357 2.21956C11.7357 2.31881 11.6964 2.41401 11.6263 2.48431L10.844 3.26731L9.34403 1.76731L10.1263 0.984307C10.1966 0.914005 10.292 0.874512 10.3914 0.874512C10.4908 0.874512 10.5862 0.914005 10.6565 0.984307L11.6263 1.95406V1.95481ZM10.3138 3.79681L8.81379 2.29681L3.70404 7.4073C3.66276 7.44857 3.63168 7.49891 3.61329 7.5543L3.00954 9.3648C2.99859 9.39781 2.99703 9.43321 3.00505 9.46705C3.01306 9.50089 3.03033 9.53183 3.05492 9.55642C3.07951 9.58101 3.11045 9.59828 3.14429 9.60629C3.17813 9.61431 3.21353 9.61275 3.24654 9.6018L5.05704 8.99805C5.11236 8.97987 5.16269 8.94906 5.20404 8.90805L10.3138 3.79756V3.79681Z" fill="#323132" fill-opacity="0.8"/>
<path fill-rule="evenodd" clip-rule="evenodd" d="M0.75 10.625C0.75 10.9234 0.868526 11.2095 1.0795 11.4205C1.29048 11.6315 1.57663 11.75 1.875 11.75H10.125C10.4234 11.75 10.7095 11.6315 10.9205 11.4205C11.1315 11.2095 11.25 10.9234 11.25 10.625V6.125C11.25 6.02554 11.2105 5.93016 11.1402 5.85984C11.0698 5.78951 10.9745 5.75 10.875 5.75C10.7755 5.75 10.6802 5.78951 10.6098 5.85984C10.5395 5.93016 10.5 6.02554 10.5 6.125V10.625C10.5 10.7245 10.4605 10.8198 10.3902 10.8902C10.3198 10.9605 10.2245 11 10.125 11H1.875C1.77554 11 1.68016 10.9605 1.60984 10.8902C1.53951 10.8198 1.5 10.7245 1.5 10.625V2.375C1.5 2.27554 1.53951 2.18016 1.60984 2.10984C1.68016 2.03951 1.77554 2 1.875 2H6.75C6.84946 2 6.94484 1.96049 7.01517 1.89017C7.08549 1.81984 7.125 1.72446 7.125 1.625C7.125 1.52554 7.08549 1.43016 7.01517 1.35983C6.94484 1.28951 6.84946 1.25 6.75 1.25H1.875C1.57663 1.25 1.29048 1.36853 1.0795 1.5795C0.868526 1.79048 0.75 2.07663 0.75 2.375V10.625Z" fill="#323132" fill-opacity="0.8"/>
</svg>
