<svg width="55" height="54" viewBox="0 0 55 54" fill="none" xmlns="http://www.w3.org/2000/svg">
<g opacity="0.1">
<path opacity="0.1" d="M27.3839 29.1172L8.14331 49.2293L27.4845 33.3964L46.7278 49.2293L27.3839 29.1172Z" fill="white"/>
</g>
<path d="M29.1212 22.6091H25.6466L8.14331 49.2293L27.3839 29.1173L46.7278 49.2293L29.1212 22.6091Z" fill="#6ABEAE"/>
<path d="M5.19192 32.7628C4.75148 30.9807 4.51223 29.1201 4.51223 27.2053C4.51223 18.2786 9.56911 10.5084 16.9777 6.58406L18.8237 2.48364C8.72085 6.19406 1.4917 15.8709 1.4917 27.2053C1.4917 30.6151 2.15507 33.8732 3.34317 36.8659L5.19192 32.7628Z" fill="#6ABEAE"/>
<path d="M37.6295 5.95568C45.7286 9.63359 51.3782 17.7721 51.3782 27.2053C51.3782 29.6157 51.0003 31.9394 50.3152 34.1278L52.0606 38.0034C53.5559 34.7046 54.396 31.0511 54.396 27.2053C54.396 15.4321 46.6014 5.44922 35.884 2.08276L37.6295 5.95568Z" fill="#6ABEAE"/>
<path d="M41.1934 46.437C37.4198 49.0235 32.8605 50.5483 27.9422 50.5483C22.6706 50.5483 17.8067 48.796 13.8863 45.8574L12.6411 48.6795C16.9639 51.7426 22.2437 53.5545 27.9395 53.5545C33.2819 53.5545 38.2572 51.962 42.4196 49.2374L41.1934 46.437Z" fill="#6ABEAE"/>
<path d="M32.5489 0H22.3155L0 49.5652H10.1627L27.4349 10.4054L44.6364 49.5652H54.8698L32.5489 0Z" fill="white"/>
</svg>
